<?xml version="1.0" encoding="UTF-8"?>
<svg id="Layer_2" data-name="Layer 2" xmlns="http://www.w3.org/2000/svg" viewBox="0 0 357.99 65.11">
  <defs>
    <style>
      .cls-1 {
        fill: #231f20;
      }
    </style>
  </defs>
  <g id="Layer_1-2" data-name="Layer 1">
    <g>
      <g>
        <path class="cls-1" d="M334.1,29.66c-.76,0-1.4.64-1.4,1.4v1.44c0,.81.59,1.4,1.4,1.4.76,0,1.4-.64,1.4-1.4v-1.44c0-.76-.64-1.4-1.4-1.4Z"/>
        <path class="cls-1" d="M326.9,29.66c-.76,0-1.4.64-1.4,1.4v1.44c0,.78.61,1.4,1.4,1.4s1.4-.64,1.4-1.4v-1.44c0-.76-.64-1.4-1.4-1.4Z"/>
        <path class="cls-1" d="M340.7,28.64h-.75c-.29-1.96-1.68-3.54-3.61-4.09v-2.91c0-.76-.64-1.4-1.4-1.4s-1.4.64-1.4,1.4v2.68h-6.08v-2.68c0-.76-.64-1.4-1.4-1.4s-1.4.64-1.4,1.4v2.91c-1.88.56-3.26,2.13-3.6,4.09h-.76c-1.96,0-3.5,1.54-3.5,3.5v1.44c0,1.96,1.54,3.5,3.5,3.5h.73c.25,2.52,2.42,4.5,5.03,4.5h8.88c2.61,0,4.73-1.94,5.03-4.5h.73c1.96,0,3.5-1.54,3.5-3.5v-1.44c0-1.96-1.54-3.5-3.5-3.5ZM341.4,32.14v1.44c0,.39-.31.7-.7.7h-.7v-2.84h.7c.39,0,.7.31.7.7ZM337.2,29.44v7.08c0,1.22-1.04,2.26-2.26,2.26h-8.88c-1.23,0-2.26-1.04-2.26-2.26v-7.08c0-1.23,1.04-2.26,2.26-2.26h8.88c1.23,0,2.26,1.03,2.26,2.26ZM321,31.44v2.84h-.7c-.39,0-.7-.31-.7-.7v-1.44c0-.39.31-.7.7-.7h.7Z"/>
        <path class="cls-1" d="M355.94,29.76l-5.21-4.17v-8.4c0-.76-.64-1.4-1.4-1.4h-10.86l-4.19-3.32c-2.7-2-4.91-2-7.63.01l-4.12,3.31h-10.86c-.76,0-1.4.64-1.4,1.4v8.4l-5.21,4.17c-1.3,1.04-2.05,2.07-2.05,4.29v25.13c0,2.92,2.38,5.3,5.3,5.3h44.38c2.92,0,5.3-2.38,5.3-5.3v-25.13c0-2.21-.75-3.25-2.05-4.29ZM306.89,31.82l3.38-2.67v5.27l-3.38-2.6ZM326.99,15.8l1.41-1.15c1.67-1.24,2.57-1.24,4.18,0l1.42,1.15h-7.01ZM350.73,29.15l3.38,2.67-3.38,2.6v-5.27ZM355.19,34.53v24.66c0,.14-.02.28-.05.43l-16.26-12.6,16.31-12.49ZM324.38,48.79l1.98,1.56c1.72,1.31,2.9,1.84,4.08,1.84s2.36-.53,4.08-1.84l2.03-1.56,16.58,12.84c-.17.04-.34.06-.5.06h-44.33c-.16,0-.33-.02-.5-.06l16.57-12.84ZM328.1,48.11l-15.04-11.55v-17.97h34.87v17.97l-15.04,11.55c-2.15,1.65-2.64,1.65-4.79,0ZM322.06,47.01l-16.21,12.61c-.03-.14-.04-.28-.04-.44v-24.66l16.26,12.48Z"/>
      </g>
      <g>
        <path class="cls-1" d="M27.63,64.11l-.63-5.51h-.27c-2.44,3.43-7.13,6.5-13.36,6.5-8.85,0-13.36-6.23-13.36-12.55,0-10.57,9.39-16.34,26.28-16.25v-.9c0-3.61-.99-10.11-9.93-10.11-4.06,0-8.31,1.26-11.38,3.25l-1.81-5.24c3.61-2.35,8.85-3.88,14.36-3.88,13.36,0,16.62,9.12,16.62,17.88v16.34c0,3.79.18,7.5.72,10.47h-7.22ZM26.46,41.81c-8.67-.18-18.51,1.35-18.51,9.84,0,5.15,3.43,7.58,7.5,7.58,5.69,0,9.3-3.61,10.57-7.31.27-.81.45-1.72.45-2.53v-7.59Z"/>
        <path class="cls-1" d="M79.01,52.19c0,4.52.09,8.49.36,11.92h-7.04l-.45-7.13h-.18c-2.08,3.52-6.68,8.13-14.45,8.13-6.86,0-15.08-3.79-15.08-19.14v-25.56h7.95v24.2c0,8.31,2.53,13.91,9.75,13.91,5.33,0,9.03-3.7,10.48-7.22.45-1.17.72-2.62.72-4.06v-26.82h7.95v31.79Z"/>
        <path class="cls-1" d="M97.25,7.86v12.55h11.38v6.05h-11.38v23.57c0,5.42,1.54,8.49,5.96,8.49,2.08,0,3.61-.27,4.61-.54l.36,5.96c-1.54.63-3.97,1.08-7.04,1.08-3.7,0-6.68-1.17-8.58-3.34-2.26-2.35-3.07-6.23-3.07-11.38v-23.84h-6.77v-6.05h6.77v-10.47l7.77-2.08Z"/>
        <path class="cls-1" d="M152.06,41.9c0,16.16-11.2,23.21-21.76,23.21-11.83,0-20.95-8.67-20.95-22.48,0-14.63,9.57-23.21,21.67-23.21s21.04,9.12,21.04,22.49ZM117.39,42.35c0,9.57,5.51,16.8,13.27,16.8s13.27-7.13,13.27-16.98c0-7.4-3.7-16.8-13.09-16.8s-13.45,8.67-13.45,16.98Z"/>
        <path class="cls-1" d="M157.57,32.24c0-4.52-.09-8.22-.36-11.83h6.95l.36,7.04h.27c2.44-4.15,6.5-8.04,13.73-8.04,5.96,0,10.47,3.61,12.37,8.76h.18c1.35-2.44,3.07-4.33,4.88-5.69,2.62-1.99,5.51-3.07,9.66-3.07,5.78,0,14.36,3.79,14.36,18.96v25.74h-7.77v-24.74c0-8.4-3.07-13.46-9.48-13.46-4.52,0-8.04,3.34-9.39,7.22-.36,1.08-.63,2.53-.63,3.97v27h-7.77v-26.19c0-6.95-3.07-12.01-9.12-12.01-4.97,0-8.58,3.97-9.84,7.95-.45,1.17-.63,2.53-.63,3.88v26.37h-7.77v-31.88Z"/>
        <path class="cls-1" d="M252.56,64.11l-.63-5.51h-.27c-2.44,3.43-7.13,6.5-13.36,6.5-8.85,0-13.37-6.23-13.37-12.55,0-10.57,9.39-16.34,26.28-16.25v-.9c0-3.61-.99-10.11-9.93-10.11-4.06,0-8.31,1.26-11.38,3.25l-1.81-5.24c3.61-2.35,8.85-3.88,14.36-3.88,13.37,0,16.62,9.12,16.62,17.88v16.34c0,3.79.18,7.5.72,10.47h-7.22ZM251.39,41.81c-8.67-.18-18.51,1.35-18.51,9.84,0,5.15,3.43,7.58,7.5,7.58,5.69,0,9.3-3.61,10.56-7.31.27-.81.45-1.72.45-2.53v-7.59Z"/>
        <path class="cls-1" d="M276.22,8.13c.09,2.71-1.9,4.88-5.06,4.88-2.8,0-4.79-2.17-4.79-4.88s2.08-4.97,4.97-4.97,4.88,2.17,4.88,4.97ZM267.37,64.11V20.41h7.95v43.71h-7.95Z"/>
        <path class="cls-1" d="M283.98,0h7.95v64.11h-7.95V0Z"/>
      </g>
    </g>
  </g>
</svg>